<svg width="160" height="160" viewBox="0 0 160 160" fill="none" xmlns="http://www.w3.org/2000/svg">
  <rect width="160" height="160" rx="36" fill="#080808"/>
  <rect x="8" y="8" width="144" height="144" rx="28" stroke="url(#paint0_linear)" stroke-width="4"/>
  <path d="M80 28L116 49V91L80 112L44 91V49L80 28Z" fill="#111111" stroke="#F4C400" stroke-width="6" stroke-linejoin="round"/>
  <path d="M80 28V70M116 49L80 70M44 49L80 70" stroke="#FFD84D" stroke-width="6" stroke-linecap="round" stroke-linejoin="round"/>
  <path d="M32 119C32 108.507 40.507 100 51 100H74V112H54C50.134 112 47 115.134 47 119C47 122.866 50.134 126 54 126H67.5C78.27 126 87 134.73 87 145.5C87 156.27 78.27 165 67.5 165H32V153H64.5C68.09 153 71 150.09 71 146.5C71 142.91 68.09 140 64.5 140H51C40.507 140 32 131.493 32 121V119Z" fill="url(#paint1_linear)" transform="translate(0 -21)"/>
  <path d="M92 100H109.5C124.688 100 137 112.312 137 127.5C137 142.688 124.688 155 109.5 155H92V100ZM107 112V143H109C117.837 143 125 135.837 125 127C125 118.163 117.837 111 109 111H107V112Z" fill="url(#paint2_linear)" transform="translate(0 -21)"/>
  <path d="M95 100H112.5C127.688 100 140 112.312 140 127.5C140 142.688 127.688 155 112.5 155H95V100ZM110 112V143H112C120.837 143 128 135.837 128 127C128 118.163 120.837 111 112 111H110V112Z" fill="#FFF3BF" fill-opacity="0.22" transform="translate(-9 -21)"/>
  <defs>
    <linearGradient id="paint0_linear" x1="22" y1="20" x2="138" y2="142" gradientUnits="userSpaceOnUse">
      <stop stop-color="#FFE27A"/>
      <stop offset="1" stop-color="#F4C400"/>
    </linearGradient>
    <linearGradient id="paint1_linear" x1="32" y1="101" x2="86" y2="154" gradientUnits="userSpaceOnUse">
      <stop stop-color="#FFE27A"/>
      <stop offset="1" stop-color="#F4C400"/>
    </linearGradient>
    <linearGradient id="paint2_linear" x1="92" y1="100" x2="137" y2="155" gradientUnits="userSpaceOnUse">
      <stop stop-color="#FFE27A"/>
      <stop offset="1" stop-color="#F4C400"/>
    </linearGradient>
  </defs>
</svg>
